<?xml version="1.0" encoding="UTF-8" standalone="no"?>
<!-- Created with Inkscape (http://www.inkscape.org/) -->

<svg
   width="25.341772mm"
   height="29.342848mm"
   viewBox="0 0 25.341772 29.342848"
   version="1.1"
   id="svg1"
   xml:space="preserve"
   xmlns="http://www.w3.org/2000/svg"
   xmlns:svg="http://www.w3.org/2000/svg"><defs
     id="defs1" /><g
     id="layer1"
     transform="translate(-63.53604,-101.13516)"><path
       style="fill:#f20000;fill-opacity:1;stroke:#641414;stroke-width:0.240495;stroke-opacity:1"
       d="m 76.281321,103.32405 c -6.062738,0.41735 -10.199781,2.67278 -11.79485,7.35451 -1.465431,6.51563 -1.783706,12.46183 5.895395,19.67882 l 11.843657,-0.0924 c 3.952718,-3.58742 8.179453,-10.69388 5.881695,-19.51479 -1.751306,-4.24783 -5.281296,-7.05652 -11.825897,-7.42615 z"
       id="path3" /><path
       style="fill:#870802;fill-opacity:1;stroke:none;stroke-width:0.408071;stroke-dasharray:none;stroke-opacity:1"
       d="m 72.781625,126.7473 1.110582,2.67846 h 4.899627 l 1.339232,-2.71113 -3.887036,-2.67846 z"
       id="path4" /><path
       style="display:inline;fill:#000000;fill-opacity:1;stroke:#ffffff;stroke-width:0.428138;stroke-dasharray:none;stroke-opacity:1"
       d="m 76.25532,101.44973 c -1.575526,1.70822 -2.980123,3.5019 -4.168048,5.40392 1.74524,6.02843 1.985532,8.39306 2.13249,12.8434 -1.212544,-2.35058 -1.731433,-4.70116 -2.180955,-7.05175 -1.795203,-0.87182 -3.552126,-1.28429 -5.28276,-1.38127 -0.673392,0.96269 -1.298946,1.93907 -1.526668,3.0291 0.66609,6.53198 3.911704,7.54665 6.809428,9.30541 -0.823558,0.78003 -1.741928,1.41784 -3.077571,1.42974 l -0.484657,-0.26656 c -0.09711,0.83199 -0.04506,1.66399 0.436191,2.49598 l 0.775452,0.26656 c 1.260623,-0.11455 3.195926,-0.81944 6.518633,-2.73831 2.070534,0.9613 3.975713,2.29465 6.276307,2.73831 0.573643,0.0486 0.936146,-0.11394 1.187409,-0.38772 0.504989,-1.23603 0.368424,-1.75922 0.315028,-2.37482 -0.236328,0.37526 -0.550866,0.28129 -0.848152,0.29079 -1.015292,-0.19075 -1.900443,-0.6418 -2.592913,-1.4782 3.596605,-1.41164 6.131326,-4.18525 6.760963,-9.40234 -0.385858,-1.06811 -0.858731,-2.04921 -1.502437,-2.85948 -1.5855,0.14694 -3.063932,0.11868 -5.331224,1.38128 -0.433797,2.91272 -1.20717,5.1463 -2.156725,7.02752 0.05226,-4.28372 1.174158,-8.64383 2.084027,-12.9888 -1.102615,-1.79576 -2.524917,-3.55155 -4.143818,-5.28276 z"
       id="path2" /></g></svg>
